<?xml version="1.0" encoding="UTF-8" standalone="no"?>
<!DOCTYPE svg PUBLIC "-//W3C//DTD SVG 1.1//EN" "http://www.w3.org/Graphics/SVG/1.1/DTD/svg11.dtd">
<svg width="100%" height="100%" viewBox="0 0 1000 1000" version="1.1" xmlns="http://www.w3.org/2000/svg" xmlns:xlink="http://www.w3.org/1999/xlink" xml:space="preserve" xmlns:serif="http://www.serif.com/" style="fill-rule:evenodd;clip-rule:evenodd;stroke-linejoin:round;stroke-miterlimit:2;">
    <g transform="matrix(0.90436,0,0,0.90436,22.9842,150.052)">
        <g transform="matrix(-0.371481,-0.214474,-0.225178,0.39002,823.355,341.362)">
            <path d="M369.953,426.888C369.685,428.73 369.546,430.611 369.546,432.523L369.546,1107.22C369.546,1115.19 376.339,1121.66 384.707,1121.66C393.074,1121.66 399.867,1115.19 399.867,1107.22L399.867,544.289C399.867,537.752 405.44,532.444 412.304,532.444C419.168,532.444 424.74,537.752 424.74,544.289L424.74,1224.34C424.74,1232.31 431.533,1238.78 439.901,1238.78C448.268,1238.78 455.061,1232.31 455.061,1224.34L455.061,-1.852C455.061,-9.277 447.178,-15.358 441.57,-15.304C435.962,-15.25 428.005,-10.31 419.793,-2.392C402.985,13.814 383.159,38.31 365.941,108.712C350.26,172.827 326.415,403.527 326.415,403.527C326.415,410.951 332.066,416.121 339.707,418.293L369.953,426.888Z" style="fill:rgb(58,175,185);"/>
        </g>
        <g transform="matrix(-0.371481,0.214474,0.225178,0.39002,538.08,164.505)">
            <path d="M370.477,424.04C369.867,426.777 369.546,429.614 369.546,432.523L369.546,1224.34C369.546,1232.31 376.339,1238.78 384.707,1238.78C393.074,1238.78 399.867,1232.31 399.867,1224.34L399.867,544.289C399.867,537.752 405.44,532.444 412.304,532.444C419.168,532.444 424.74,537.752 424.74,544.289L424.74,1107.22C424.74,1115.19 431.533,1121.66 439.901,1121.66C448.268,1121.66 455.061,1115.19 455.061,1107.22L455.061,432.523C455.061,429.614 454.74,426.777 454.131,424.04C496.696,402.23 526.862,348.132 526.862,284.918C526.862,283.89 526.854,282.865 526.838,281.843C526.854,281.429 526.862,281.013 526.862,280.594L526.862,38.889C526.862,30.268 519.514,23.27 510.463,23.27C501.413,23.27 494.065,30.268 494.065,38.889L494.065,293.746C494.065,302.342 486.738,309.321 477.713,309.321C468.688,309.321 461.36,302.342 461.36,293.746L461.36,38.845C461.36,30.249 454.033,23.27 445.008,23.27C435.983,23.27 428.656,30.249 428.656,38.845L428.656,293.746C428.656,302.342 421.329,309.321 412.304,309.321C403.279,309.321 395.951,302.342 395.951,293.746L395.951,38.889C395.951,30.268 388.604,23.27 379.553,23.27C370.502,23.27 363.155,30.268 363.155,38.889L363.155,293.746C363.155,302.342 355.827,309.321 346.802,309.321C337.777,309.321 330.45,302.342 330.45,293.746L330.45,38.845C330.45,30.249 323.123,23.27 314.098,23.27C305.073,23.27 297.745,30.249 297.745,38.845L297.745,280.594C297.745,281.013 297.753,281.429 297.769,281.843C297.753,282.865 297.745,283.89 297.745,284.918C297.745,348.132 327.911,402.23 370.477,424.04Z" style="fill:rgb(58,175,185);"/>
        </g>
        <g transform="matrix(1.22141,0,0,1,16.6391,0)">
            <path d="M155.479,477.179L339.836,477.179C346.023,477.179 351.046,483.315 351.046,490.872L351.046,509.128C351.046,516.685 346.023,522.821 339.836,522.821L155.479,522.821L155.479,717.342C155.479,724.899 150.456,731.034 144.269,731.034L129.321,731.034C123.134,731.034 118.111,724.899 118.111,717.342L118.111,253.699C118.111,246.142 123.134,240.007 129.321,240.007L144.269,240.007C150.456,240.007 155.479,246.142 155.479,253.699L155.479,477.179Z" style="fill:rgb(58,175,185);"/>
        </g>
        <g transform="matrix(-2.50347e-17,-1.22141,-0.332632,-1.02097e-16,849.659,667.082)">
            <path d="M118.111,485.521L118.111,689.87C118.111,712.589 123.134,731.034 129.321,731.034L144.269,731.034C150.456,731.034 155.479,712.589 155.479,689.87L155.479,281.171C155.479,280.393 155.473,279.62 155.462,278.853C155.466,278.38 155.469,277.904 155.469,277.427C155.469,132.838 187.39,15.625 226.767,15.625C265.837,15.625 297.567,131.02 298.059,274.056C298.052,274.63 298.049,275.208 298.049,275.788L298.049,428.741C298.049,451.46 303.072,469.905 309.259,469.905L324.207,469.905C330.394,469.905 335.417,451.46 335.417,428.741L335.417,278.364C335.419,278.053 335.42,277.74 335.42,277.427C335.42,57.082 286.774,-121.542 226.767,-121.542C178.574,-121.542 137.709,-6.331 123.486,153.176L-28.07,-168.122C-33.428,-179.481 -40.29,-172.73 -43.384,-153.055L-50.858,-105.523C-53.951,-85.847 -52.112,-60.651 -46.754,-49.292L87.088,234.452C93.674,248.415 102.345,273.067 108.301,306.069C116.042,348.966 118.111,485.521 118.111,485.521Z" style="fill:rgb(58,175,185);"/>
        </g>
        <g transform="matrix(1.11963,0,0,1,-32.2495,-148.105)">
            <path d="M527.628,150.309C618.354,162.536 690.252,234.134 702.932,324.716L297.068,324.716C309.748,234.134 381.646,162.536 472.372,150.309C472.34,149.698 472.324,149.082 472.324,148.462C472.324,131.36 484.725,117.475 500,117.475C515.275,117.475 527.676,131.36 527.676,148.462C527.676,149.082 527.66,149.698 527.628,150.309ZM486.168,148.922C490.739,148.617 495.352,148.462 500,148.462C504.648,148.462 509.261,148.617 513.832,148.922C513.836,148.769 513.838,148.616 513.838,148.462C513.838,139.911 507.637,132.969 500,132.969C492.363,132.969 486.162,139.911 486.162,148.462C486.162,148.616 486.164,148.769 486.168,148.922ZM679.523,290.874C682.887,288.98 681.13,284.241 680.068,281.784C680.068,281.784 673.274,263.503 661.659,246.263C652.442,232.583 639.976,219.774 630.878,211.381C622.32,203.485 609.004,193.571 595.352,185.761C576.144,174.773 556.479,167.758 556.479,167.758C553.5,166.573 550.399,166.608 549.181,170.31C548.144,173.459 547.257,175.134 550.167,176.334C557.706,179.446 570.843,183.867 590.644,195.308C603.881,202.957 616.533,212.546 624.787,220.161C633.406,228.113 645.218,239.871 654.081,252.912C666.287,270.87 670.701,283.555 673.756,290.361C674.986,293.101 675.955,292.882 679.523,290.874ZM295.82,335.829L704.18,335.829C704.671,341.615 704.921,347.47 704.921,353.384L500,353.384L295.079,353.384C295.079,347.47 295.329,341.615 295.82,335.829Z" style="fill:rgb(58,175,185);"/>
        </g>
        <g transform="matrix(1.0154,0,0,1.0154,19.7623,-120.744)">
            <path d="M500,0C775.958,0 1000,224.042 1000,500C1000,775.958 775.958,1000 500,1000C224.042,1000 -0,775.958 -0,500C-0,224.042 224.042,0 500,0ZM500,45C751.121,45 955,248.879 955,500C955,751.121 751.121,955 500,955C248.879,955 45,751.121 45,500C45,248.879 248.879,45 500,45Z" style="fill:rgb(58,175,185);"/>
        </g>
    </g>
</svg>
