<?xml version="1.0" encoding="UTF-8" standalone="no"?>
<!DOCTYPE svg PUBLIC "-//W3C//DTD SVG 1.1//EN" "http://www.w3.org/Graphics/SVG/1.1/DTD/svg11.dtd">
<svg width="100%" height="100%" viewBox="0 0 100 100" version="1.1" xmlns="http://www.w3.org/2000/svg" xmlns:xlink="http://www.w3.org/1999/xlink" xml:space="preserve" xmlns:serif="http://www.serif.com/" style="fill-rule:evenodd;clip-rule:evenodd;stroke-linejoin:round;stroke-miterlimit:2;">
    <g transform="matrix(0.707107,0.707107,-0.707107,0.707107,47.8404,-16.7)">
        <path d="M46.859,43.805L46.859,7.81C46.859,6.798 47.68,5.977 48.691,5.977C49.702,5.977 50.524,6.798 50.524,7.81L50.524,43.805L86.518,43.805C87.53,43.805 88.351,44.626 88.351,45.637C88.351,46.648 87.53,47.469 86.518,47.469L50.524,47.469L50.524,83.464C50.524,84.476 49.702,85.297 48.691,85.297C47.68,85.297 46.859,84.476 46.859,83.464L46.859,47.469L10.864,47.469C9.853,47.469 9.031,46.648 9.031,45.637C9.031,44.626 9.853,43.805 10.864,43.805L46.859,43.805Z" style="fill:white;"/>
    </g>
</svg>
